<svg width="20" height="19" viewBox="0 0 20 19" fill="none" xmlns="http://www.w3.org/2000/svg">
<path d="M19 9.32C19 3.83 14.74 0.0999985 10 0.0999985C5.31 0.0999985 1 3.75 1 9.38C0.4 9.72 0 10.36 0 11.1V13.1C0 14.2 0.9 15.1 2 15.1H3V9C3 5.13 6.13 2 10 2C13.87 2 17 5.13 17 9V16.1H9V18.1H17C18.1 18.1 19 17.2 19 16.1V14.88C19.59 14.57 20 13.96 20 13.24V10.94C20 10.24 19.59 9.63 19 9.32Z" fill="#AEAFB4"/>
<path d="M6.99988 11.1C7.55216 11.1 7.99988 10.6523 7.99988 10.1C7.99988 9.54772 7.55216 9.10001 6.99988 9.10001C6.44759 9.10001 5.99988 9.54772 5.99988 10.1C5.99988 10.6523 6.44759 11.1 6.99988 11.1Z" fill="#AEAFB4"/>
<path d="M12.9998 11.1C13.552 11.1 13.9998 10.6523 13.9998 10.1C13.9998 9.54772 13.552 9.10001 12.9998 9.10001C12.4475 9.10001 11.9998 9.54772 11.9998 10.1C11.9998 10.6523 12.4475 11.1 12.9998 11.1Z" fill="#AEAFB4"/>
<path d="M15.9998 8.13012C15.5198 5.28012 13.0398 3.10012 10.0498 3.10012C7.01985 3.10012 3.75985 5.61012 4.01985 9.55012C6.48985 8.54012 8.34985 6.34012 8.87985 3.66012C10.1898 6.29012 12.8798 8.10012 15.9998 8.13012Z" fill="#AEAFB4"/>
</svg>
